<svg width="400" height="300" viewBox="0 0 400 300" xmlns="http://www.w3.org/2000/svg">
  <!-- Background -->
  <defs>
    <linearGradient id="bgGradient" x1="0%" y1="0%" x2="100%" y2="100%">
      <stop offset="0%" style="stop-color:#f5f5dc;stop-opacity:1" />
      <stop offset="100%" style="stop-color:#e6e6fa;stop-opacity:1" />
    </linearGradient>
  </defs>
  <rect width="400" height="300" fill="url(#bgGradient)"/>
  
  <!-- Traditional Mat -->
  <rect x="50" y="150" width="300" height="120" fill="#8b4513" rx="5"/>
  <rect x="60" y="160" width="280" height="100" fill="#daa520" rx="3"/>
  
  <!-- Tea Set -->
  <!-- Teapot -->
  <ellipse cx="200" cy="200" rx="25" ry="15" fill="#2f4f4f"/>
  <rect x="185" y="185" width="30" height="15" fill="#2f4f4f" rx="3"/>
  <path d="M 175 195 Q 170 190 175 185" stroke="#2f4f4f" stroke-width="3" fill="none"/>
  <circle cx="210" cy="190" r="3" fill="#2f4f4f"/>
  
  <!-- Tea Cups -->
  <ellipse cx="150" cy="210" rx="12" ry="8" fill="#2f4f4f"/>
  <rect x="142" y="202" width="16" height="8" fill="#2f4f4f" rx="2"/>
  <path d="M 158 206 Q 162 204 158 202" stroke="#2f4f4f" stroke-width="2" fill="none"/>
  
  <ellipse cx="250" cy="210" rx="12" ry="8" fill="#2f4f4f"/>
  <rect x="242" y="202" width="16" height="8" fill="#2f4f4f" rx="2"/>
  <path d="M 258 206 Q 262 204 258 202" stroke="#2f4f4f" stroke-width="2" fill="none"/>
  
  <!-- Tea Steam -->
  <path d="M 200 185 Q 195 175 200 165 Q 205 155 200 145" stroke="#d3d3d3" stroke-width="2" fill="none" opacity="0.7"/>
  <path d="M 150 195 Q 145 185 150 175" stroke="#d3d3d3" stroke-width="1.5" fill="none" opacity="0.6"/>
  <path d="M 250 195 Q 255 185 250 175" stroke="#d3d3d3" stroke-width="1.5" fill="none" opacity="0.6"/>
  
  <!-- Traditional Snacks -->
  <circle cx="120" cy="230" r="8" fill="#daa520"/>
  <circle cx="135" cy="235" r="6" fill="#cd853f"/>
  <circle cx="280" cy="230" r="8" fill="#daa520"/>
  <circle cx="295" cy="235" r="6" fill="#cd853f"/>
  
  <!-- Bamboo Elements -->
  <rect x="30" y="50" width="8" height="100" fill="#228b22"/>
  <rect x="30" y="60" width="8" height="3" fill="#32cd32"/>
  <rect x="30" y="80" width="8" height="3" fill="#32cd32"/>
  <rect x="30" y="100" width="8" height="3" fill="#32cd32"/>
  <rect x="30" y="120" width="8" height="3" fill="#32cd32"/>
  
  <rect x="362" y="40" width="8" height="120" fill="#228b22"/>
  <rect x="362" y="50" width="8" height="3" fill="#32cd32"/>
  <rect x="362" y="70" width="8" height="3" fill="#32cd32"/>
  <rect x="362" y="90" width="8" height="3" fill="#32cd32"/>
  <rect x="362" y="110" width="8" height="3" fill="#32cd32"/>
  <rect x="362" y="130" width="8" height="3" fill="#32cd32"/>
  
  <!-- Zen Garden Elements -->
  <circle cx="100" cy="100" r="30" fill="#f5deb3"/>
  <path d="M 80 100 Q 100 90 120 100 Q 100 110 80 100" stroke="#d2b48c" stroke-width="1" fill="none"/>
  <path d="M 85 95 Q 100 85 115 95" stroke="#d2b48c" stroke-width="1" fill="none"/>
  <path d="M 85 105 Q 100 115 115 105" stroke="#d2b48c" stroke-width="1" fill="none"/>
  
  <!-- Meditation Stones -->
  <ellipse cx="90" cy="100" rx="4" ry="3" fill="#696969"/>
  <ellipse cx="100" cy="95" rx="3" ry="2" fill="#708090"/>
  <ellipse cx="110" cy="105" rx="4" ry="3" fill="#696969"/>
  
  <!-- Traditional Calligraphy Scroll -->
  <rect x="280" y="80" width="60" height="40" fill="#fffaf0" stroke="#8b4513" stroke-width="2"/>
  <path d="M 290 90 Q 295 95 300 90 Q 305 95 310 90" stroke="#2f4f4f" stroke-width="2" fill="none"/>
  <path d="M 290 100 Q 300 105 310 100" stroke="#2f4f4f" stroke-width="2" fill="none"/>
  <path d="M 290 110 Q 295 105 300 110 Q 305 105 310 110" stroke="#2f4f4f" stroke-width="2" fill="none"/>
  
  <!-- Lotus Flowers -->
  <g transform="translate(320,120)">
    <path d="M 0 0 Q -5 -5 0 -10 Q 5 -5 0 0" fill="#ff69b4"/>
    <path d="M 0 0 Q -7 0 -5 -8 Q 0 -5 0 0" fill="#ff1493"/>
    <path d="M 0 0 Q 7 0 5 -8 Q 0 -5 0 0" fill="#ff1493"/>
    <path d="M 0 0 Q 0 -7 -8 -5 Q -5 0 0 0" fill="#ff1493"/>
    <path d="M 0 0 Q 0 -7 8 -5 Q 5 0 0 0" fill="#ff1493"/>
  </g>
  
  <!-- Incense -->
  <rect x="70" y="120" width="2" height="30" fill="#8b4513"/>
  <path d="M 71 120 Q 68 110 71 100 Q 74 90 71 80" stroke="#d3d3d3" stroke-width="1" fill="none" opacity="0.5"/>
  
  <!-- Traditional Lantern -->
  <rect x="320" y="30" width="20" height="30" fill="#dc143c" rx="3"/>
  <rect x="322" y="32" width="16" height="26" fill="#fffaf0" rx="2"/>
  <path d="M 325 35 Q 330 40 335 35" stroke="#2f4f4f" stroke-width="1" fill="none"/>
  <path d="M 325 45 Q 330 50 335 45" stroke="#2f4f4f" stroke-width="1" fill="none"/>
  <rect x="328" y="25" width="4" height="10" fill="#8b4513"/>
</svg>