<svg width="400" height="300" viewBox="0 0 400 300" xmlns="http://www.w3.org/2000/svg">
  <!-- Background -->
  <defs>
    <linearGradient id="skyGradient" x1="0%" y1="0%" x2="100%" y2="100%">
      <stop offset="0%" style="stop-color:#87ceeb;stop-opacity:1" />
      <stop offset="100%" style="stop-color:#f0f8ff;stop-opacity:1" />
    </linearGradient>
  </defs>
  <rect width="400" height="300" fill="url(#skyGradient)"/>
  
  <!-- Hills in Background -->
  <path d="M 0 200 Q 100 180 200 190 Q 300 175 400 185 L 400 300 L 0 300 Z" fill="#9acd32"/>
  <path d="M 0 220 Q 150 200 300 210 Q 350 205 400 215 L 400 300 L 0 300 Z" fill="#8fbc8f"/>
  
  <!-- Ground -->
  <rect x="0" y="250" width="400" height="50" fill="#daa520"/>
  
  <!-- Olive Trees -->
  <!-- Tree 1 -->
  <rect x="80" y="180" width="8" height="70" fill="#8b4513"/>
  <circle cx="84" cy="170" r="25" fill="#556b2f"/>
  <circle cx="75" cy="165" r="15" fill="#6b8e23"/>
  <circle cx="93" cy="165" r="15" fill="#6b8e23"/>
  <circle cx="84" cy="155" r="12" fill="#9acd32"/>
  
  <!-- Olives on Tree 1 -->
  <circle cx="70" cy="160" r="2" fill="#2f4f2f"/>
  <circle cx="85" cy="155" r="2" fill="#2f4f2f"/>
  <circle cx="95" cy="170" r="2" fill="#2f4f2f"/>
  <circle cx="78" cy="175" r="2" fill="#2f4f2f"/>
  
  <!-- Tree 2 -->
  <rect x="200" y="190" width="10" height="60" fill="#8b4513"/>
  <circle cx="205" cy="180" r="30" fill="#556b2f"/>
  <circle cx="190" cy="175" r="18" fill="#6b8e23"/>
  <circle cx="220" cy="175" r="18" fill="#6b8e23"/>
  <circle cx="205" cy="160" r="15" fill="#9acd32"/>
  
  <!-- Olives on Tree 2 -->
  <circle cx="185" cy="170" r="2" fill="#2f4f2f"/>
  <circle cx="205" cy="165" r="2" fill="#2f4f2f"/>
  <circle cx="225" cy="180" r="2" fill="#2f4f2f"/>
  <circle cx="195" cy="185" r="2" fill="#2f4f2f"/>
  <circle cx="215" cy="170" r="2" fill="#2f4f2f"/>
  
  <!-- Tree 3 -->
  <rect x="320" y="185" width="8" height="65" fill="#8b4513"/>
  <circle cx="324" cy="175" r="28" fill="#556b2f"/>
  <circle cx="310" cy="170" r="16" fill="#6b8e23"/>
  <circle cx="338" cy="170" r="16" fill="#6b8e23"/>
  <circle cx="324" cy="155" r="13" fill="#9acd32"/>
  
  <!-- Olives on Tree 3 -->
  <circle cx="315" cy="165" r="2" fill="#2f4f2f"/>
  <circle cx="330" cy="160" r="2" fill="#2f4f2f"/>
  <circle cx="340" cy="175" r="2" fill="#2f4f2f"/>
  <circle cx="310" cy="180" r="2" fill="#2f4f2f"/>
  
  <!-- Harvest Baskets -->
  <ellipse cx="120" cy="245" rx="15" ry="8" fill="#8b4513"/>
  <rect x="105" y="237" width="30" height="8" fill="#cd853f" rx="2"/>
  <path d="M 105 245 Q 120 235 135 245" stroke="#8b4513" stroke-width="2" fill="none"/>
  
  <ellipse cx="260" cy="245" rx="15" ry="8" fill="#8b4513"/>
  <rect x="245" y="237" width="30" height="8" fill="#cd853f" rx="2"/>
  <path d="M 245 245 Q 260 235 275 245" stroke="#8b4513" stroke-width="2" fill="none"/>
  
  <!-- Olives in Baskets -->
  <circle cx="115" cy="240" r="1.5" fill="#2f4f2f"/>
  <circle cx="125" cy="242" r="1.5" fill="#2f4f2f"/>
  <circle cx="120" cy="238" r="1.5" fill="#2f4f2f"/>
  <circle cx="110" cy="243" r="1.5" fill="#2f4f2f"/>
  <circle cx="130" cy="240" r="1.5" fill="#2f4f2f"/>
  
  <circle cx="255" cy="240" r="1.5" fill="#2f4f2f"/>
  <circle cx="265" cy="242" r="1.5" fill="#2f4f2f"/>
  <circle cx="260" cy="238" r="1.5" fill="#2f4f2f"/>
  <circle cx="250" cy="243" r="1.5" fill="#2f4f2f"/>
  <circle cx="270" cy="240" r="1.5" fill="#2f4f2f"/>
  
  <!-- Harvest Tools -->
  <!-- Ladder -->
  <rect x="150" y="180" width="3" height="70" fill="#8b4513"/>
  <rect x="157" y="180" width="3" height="70" fill="#8b4513"/>
  <rect x="150" y="190" width="10" height="2" fill="#8b4513"/>
  <rect x="150" y="200" width="10" height="2" fill="#8b4513"/>
  <rect x="150" y="210" width="10" height="2" fill="#8b4513"/>
  <rect x="150" y="220" width="10" height="2" fill="#8b4513"/>
  <rect x="150" y="230" width="10" height="2" fill="#8b4513"/>
  <rect x="150" y="240" width="10" height="2" fill="#8b4513"/>
  
  <!-- Olive Oil Jars -->
  <ellipse cx="50" cy="240" rx="12" ry="15" fill="#daa520"/>
  <rect x="44" y="225" width="12" height="8" fill="#b8860b" rx="2"/>
  <circle cx="50" cy="229" r="3" fill="#8b4513"/>
  
  <ellipse cx="350" cy="240" rx="12" ry="15" fill="#daa520"/>
  <rect x="344" y="225" width="12" height="8" fill="#b8860b" rx="2"/>
  <circle cx="350" cy="229" r="3" fill="#8b4513"/>
  
  <!-- Mediterranean House -->
  <rect x="300" y="220" width="40" height="30" fill="#f5deb3"/>
  <path d="M 295 220 L 320 200 L 345 220 Z" fill="#cd853f"/>
  <rect x="310" y="235" width="8" height="15" fill="#8b4513"/>
  <rect x="325" y="230" width="6" height="6" fill="#4169e1"/>
  
  <!-- Sun -->
  <circle cx="350" cy="50" r="20" fill="#ffd700"/>
  <line x1="330" y1="30" x2="340" y2="40" stroke="#ffd700" stroke-width="2"/>
  <line x1="360" y1="40" x2="370" y2="30" stroke="#ffd700" stroke-width="2"/>
  <line x1="330" y1="70" x2="340" y2="60" stroke="#ffd700" stroke-width="2"/>
  <line x1="360" y1="60" x2="370" y2="70" stroke="#ffd700" stroke-width="2"/>
  <line x1="320" y1="50" x2="330" y2="50" stroke="#ffd700" stroke-width="2"/>
  <line x1="370" y1="50" x2="380" y2="50" stroke="#ffd700" stroke-width="2"/>
  
  <!-- Falling Olives -->
  <circle cx="90" cy="200" r="1" fill="#2f4f2f"/>
  <circle cx="210" cy="210" r="1" fill="#2f4f2f"/>
  <circle cx="330" cy="205" r="1" fill="#2f4f2f"/>
  
  <!-- Traditional Pattern Border -->
  <rect x="0" y="0" width="400" height="10" fill="#4682b4"/>
  <rect x="0" y="5" width="20" height="5" fill="#ffffff"/>
  <rect x="40" y="5" width="20" height="5" fill="#ffffff"/>
  <rect x="80" y="5" width="20" height="5" fill="#ffffff"/>
  <rect x="120" y="5" width="20" height="5" fill="#ffffff"/>
  <rect x="160" y="5" width="20" height="5" fill="#ffffff"/>
  <rect x="200" y="5" width="20" height="5" fill="#ffffff"/>
  <rect x="240" y="5" width="20" height="5" fill="#ffffff"/>
  <rect x="280" y="5" width="20" height="5" fill="#ffffff"/>
  <rect x="320" y="5" width="20" height="5" fill="#ffffff"/>
  <rect x="360" y="5" width="20" height="5" fill="#ffffff"/>
</svg>