<svg width="400" height="300" viewBox="0 0 400 300" xmlns="http://www.w3.org/2000/svg">
  <!-- Background -->
  <defs>
    <linearGradient id="skyGradient" x1="0%" y1="0%" x2="100%" y2="100%">
      <stop offset="0%" style="stop-color:#ff7f50;stop-opacity:1" />
      <stop offset="50%" style="stop-color:#ffd700;stop-opacity:1" />
      <stop offset="100%" style="stop-color:#ff6347;stop-opacity:1" />
    </linearGradient>
  </defs>
  <rect width="400" height="300" fill="url(#skyGradient)"/>
  
  <!-- Ground -->
  <rect x="0" y="220" width="400" height="80" fill="#8b4513"/>
  <rect x="0" y="240" width="400" height="60" fill="#daa520"/>
  
  <!-- Corn Fields -->
  <!-- Corn Stalk 1 -->
  <rect x="50" y="120" width="6" height="120" fill="#228b22"/>
  <ellipse cx="53" cy="110" rx="8" ry="20" fill="#ffd700"/>
  <path d="M 45 100 Q 53 95 61 100 Q 53 90 45 100" fill="#32cd32"/>
  <path d="M 45 115 Q 53 110 61 115 Q 53 105 45 115" fill="#32cd32"/>
  
  <!-- Corn Stalk 2 -->
  <rect x="80" y="130" width="6" height="110" fill="#228b22"/>
  <ellipse cx="83" cy="120" rx="8" ry="20" fill="#ffd700"/>
  <path d="M 75 110 Q 83 105 91 110 Q 83 100 75 110" fill="#32cd32"/>
  <path d="M 75 125 Q 83 120 91 125 Q 83 115 75 125" fill="#32cd32"/>
  
  <!-- Corn Stalk 3 -->
  <rect x="110" y="125" width="6" height="115" fill="#228b22"/>
  <ellipse cx="113" cy="115" rx="8" ry="20" fill="#ffd700"/>
  <path d="M 105 105 Q 113 100 121 105 Q 113 95 105 105" fill="#32cd32"/>
  <path d="M 105 120 Q 113 115 121 120 Q 113 110 105 120" fill="#32cd32"/>
  
  <!-- More Corn Stalks in Background -->
  <rect x="140" y="135" width="4" height="105" fill="#228b22" opacity="0.7"/>
  <ellipse cx="142" cy="125" rx="6" ry="15" fill="#ffd700" opacity="0.7"/>
  
  <rect x="160" y="140" width="4" height="100" fill="#228b22" opacity="0.7"/>
  <ellipse cx="162" cy="130" rx="6" ry="15" fill="#ffd700" opacity="0.7"/>
  
  <rect x="180" y="138" width="4" height="102" fill="#228b22" opacity="0.7"/>
  <ellipse cx="182" cy="128" rx="6" ry="15" fill="#ffd700" opacity="0.7"/>
  
  <!-- Traditional Mexican Pyramid -->
  <path d="M 250 180 L 280 120 L 310 180 Z" fill="#cd853f"/>
  <path d="M 255 175 L 275 130 L 295 175 Z" fill="#daa520"/>
  <rect x="275" y="125" width="10" height="8" fill="#8b4513"/>
  
  <!-- Pyramid Steps -->
  <rect x="260" y="170" width="30" height="5" fill="#a0522d"/>
  <rect x="265" y="160" width="20" height="5" fill="#a0522d"/>
  <rect x="270" y="150" width="10" height="5" fill="#a0522d"/>
  
  <!-- Traditional Corn Grinding Stone (Metate) -->
  <ellipse cx="320" cy="230" rx="25" ry="10" fill="#696969"/>
  <ellipse cx="320" cy="225" rx="20" ry="8" fill="#808080"/>
  <rect x="310" y="220" width="4" height="15" fill="#696969"/>
  <rect x="326" y="220" width="4" height="15" fill="#696969"/>
  <rect x="318" y="220" width="4" height="15" fill="#696969"/>
  
  <!-- Ground Corn -->
  <circle cx="315" cy="225" r="2" fill="#ffd700"/>
  <circle cx="325" cy="225" r="2" fill="#ffd700"/>
  <circle cx="320" cy="223" r="1.5" fill="#ffff00"/>
  
  <!-- Traditional Clay Pots -->
  <ellipse cx="370" cy="235" rx="12" ry="15" fill="#cd853f"/>
  <rect x="364" y="220" width="12" height="8" fill="#a0522d" rx="2"/>
  <circle cx="370" cy="224" r="3" fill="#8b4513"/>
  
  <ellipse cx="340" cy="238" rx="10" ry="12" fill="#cd853f"/>
  <rect x="335" y="226" width="10" height="6" fill="#a0522d" rx="2"/>
  <circle cx="340" cy="229" r="2" fill="#8b4513"/>
  
  <!-- Sacred Corn Symbols -->
  <!-- Corn Kernels Pattern -->
  <g transform="translate(200,50)">
    <circle cx="0" cy="0" r="3" fill="#ffd700"/>
    <circle cx="8" cy="0" r="3" fill="#ffd700"/>
    <circle cx="16" cy="0" r="3" fill="#ffd700"/>
    <circle cx="4" cy="7" r="3" fill="#ffd700"/>
    <circle cx="12" cy="7" r="3" fill="#ffd700"/>
    <circle cx="0" cy="14" r="3" fill="#ffd700"/>
    <circle cx="8" cy="14" r="3" fill="#ffd700"/>
    <circle cx="16" cy="14" r="3" fill="#ffd700"/>
  </g>
  
  <!-- Traditional Feathers -->
  <path d="M 30 50 Q 35 40 40 50 Q 35 60 30 50" fill="#ff4500"/>
  <path d="M 35 45 L 35 55" stroke="#8b4513" stroke-width="1"/>
  
  <path d="M 360 60 Q 365 50 370 60 Q 365 70 360 60" fill="#32cd32"/>
  <path d="M 365 55 L 365 65" stroke="#8b4513" stroke-width="1"/>
  
  <!-- Sun Disk (Aztec Style) -->
  <circle cx="100" cy="60" r="25" fill="#ffd700"/>
  <circle cx="100" cy="60" r="20" fill="#ffff00"/>
  <path d="M 100 40 L 105 50 L 95 50 Z" fill="#ffd700"/>
  <path d="M 120 60 L 110 65 L 110 55 Z" fill="#ffd700"/>
  <path d="M 100 80 L 95 70 L 105 70 Z" fill="#ffd700"/>
  <path d="M 80 60 L 90 55 L 90 65 Z" fill="#ffd700"/>
  
  <!-- Traditional Patterns -->
  <rect x="0" y="290" width="400" height="10" fill="#8b0000"/>
  <rect x="10" y="292" width="8" height="6" fill="#ffd700"/>
  <rect x="30" y="292" width="8" height="6" fill="#32cd32"/>
  <rect x="50" y="292" width="8" height="6" fill="#ffd700"/>
  <rect x="70" y="292" width="8" height="6" fill="#32cd32"/>
  <rect x="90" y="292" width="8" height="6" fill="#ffd700"/>
  <rect x="110" y="292" width="8" height="6" fill="#32cd32"/>
  <rect x="130" y="292" width="8" height="6" fill="#ffd700"/>
  <rect x="150" y="292" width="8" height="6" fill="#32cd32"/>
  <rect x="170" y="292" width="8" height="6" fill="#ffd700"/>
  <rect x="190" y="292" width="8" height="6" fill="#32cd32"/>
  <rect x="210" y="292" width="8" height="6" fill="#ffd700"/>
  <rect x="230" y="292" width="8" height="6" fill="#32cd32"/>
  <rect x="250" y="292" width="8" height="6" fill="#ffd700"/>
  <rect x="270" y="292" width="8" height="6" fill="#32cd32"/>
  <rect x="290" y="292" width="8" height="6" fill="#ffd700"/>
  <rect x="310" y="292" width="8" height="6" fill="#32cd32"/>
  <rect x="330" y="292" width="8" height="6" fill="#ffd700"/>
  <rect x="350" y="292" width="8" height="6" fill="#32cd32"/>
  <rect x="370" y="292" width="8" height="6" fill="#ffd700"/>
  
  <!-- Corn Husks Scattered -->
  <path d="M 60 200 Q 65 190 70 200 Q 65 210 60 200" fill="#9acd32" opacity="0.7"/>
  <path d="M 120 210 Q 125 200 130 210 Q 125 220 120 210" fill="#9acd32" opacity="0.7"/>
  <path d="M 300 200 Q 305 190 310 200 Q 305 210 300 200" fill="#9acd32" opacity="0.7"/>
</svg>