<svg width="60" height="40" viewBox="0 0 60 40" xmlns="http://www.w3.org/2000/svg">
  <!-- American Flag -->
  <!-- Red Stripes -->
  <rect x="0" y="0" width="60" height="40" fill="#b22234"/>
  
  <!-- White Stripes -->
  <rect x="0" y="3.08" width="60" height="3.08" fill="#ffffff"/>
  <rect x="0" y="9.23" width="60" height="3.08" fill="#ffffff"/>
  <rect x="0" y="15.38" width="60" height="3.08" fill="#ffffff"/>
  <rect x="0" y="21.54" width="60" height="3.08" fill="#ffffff"/>
  <rect x="0" y="27.69" width="60" height="3.08" fill="#ffffff"/>
  <rect x="0" y="33.85" width="60" height="3.08" fill="#ffffff"/>
  
  <!-- Blue Canton -->
  <rect x="0" y="0" width="24" height="21.54" fill="#3c3b6e"/>
  
  <!-- Stars (simplified pattern) -->
  <g fill="#ffffff">
    <!-- Row 1 -->
    <circle cx="3" cy="2.5" r="0.8"/>
    <circle cx="7" cy="2.5" r="0.8"/>
    <circle cx="11" cy="2.5" r="0.8"/>
    <circle cx="15" cy="2.5" r="0.8"/>
    <circle cx="19" cy="2.5" r="0.8"/>
    <circle cx="23" cy="2.5" r="0.8"/>
    
    <!-- Row 2 -->
    <circle cx="5" cy="5" r="0.8"/>
    <circle cx="9" cy="5" r="0.8"/>
    <circle cx="13" cy="5" r="0.8"/>
    <circle cx="17" cy="5" r="0.8"/>
    <circle cx="21" cy="5" r="0.8"/>
    
    <!-- Row 3 -->
    <circle cx="3" cy="7.5" r="0.8"/>
    <circle cx="7" cy="7.5" r="0.8"/>
    <circle cx="11" cy="7.5" r="0.8"/>
    <circle cx="15" cy="7.5" r="0.8"/>
    <circle cx="19" cy="7.5" r="0.8"/>
    <circle cx="23" cy="7.5" r="0.8"/>
    
    <!-- Row 4 -->
    <circle cx="5" cy="10" r="0.8"/>
    <circle cx="9" cy="10" r="0.8"/>
    <circle cx="13" cy="10" r="0.8"/>
    <circle cx="17" cy="10" r="0.8"/>
    <circle cx="21" cy="10" r="0.8"/>
    
    <!-- Row 5 -->
    <circle cx="3" cy="12.5" r="0.8"/>
    <circle cx="7" cy="12.5" r="0.8"/>
    <circle cx="11" cy="12.5" r="0.8"/>
    <circle cx="15" cy="12.5" r="0.8"/>
    <circle cx="19" cy="12.5" r="0.8"/>
    <circle cx="23" cy="12.5" r="0.8"/>
    
    <!-- Row 6 -->
    <circle cx="5" cy="15" r="0.8"/>
    <circle cx="9" cy="15" r="0.8"/>
    <circle cx="13" cy="15" r="0.8"/>
    <circle cx="17" cy="15" r="0.8"/>
    <circle cx="21" cy="15" r="0.8"/>
    
    <!-- Row 7 -->
    <circle cx="3" cy="17.5" r="0.8"/>
    <circle cx="7" cy="17.5" r="0.8"/>
    <circle cx="11" cy="17.5" r="0.8"/>
    <circle cx="15" cy="17.5" r="0.8"/>
    <circle cx="19" cy="17.5" r="0.8"/>
    <circle cx="23" cy="17.5" r="0.8"/>
    
    <!-- Row 8 -->
    <circle cx="5" cy="20" r="0.8"/>
    <circle cx="9" cy="20" r="0.8"/>
    <circle cx="13" cy="20" r="0.8"/>
    <circle cx="17" cy="20" r="0.8"/>
    <circle cx="21" cy="20" r="0.8"/>
  </g>
  
  <!-- Flag Border -->
  <rect x="0" y="0" width="60" height="40" fill="none" stroke="#cccccc" stroke-width="1"/>
</svg>