<svg xmlns="http://www.w3.org/2000/svg" viewBox="0 0 400 300" width="400" height="300">
  <!-- Background -->
  <rect width="400" height="300" fill="#f8f9fa"/>
  
  <!-- Plate -->
  <ellipse cx="200" cy="200" rx="120" ry="30" fill="#e1bee7" stroke="#333" stroke-width="2"/>
  
  <!-- Taco Shell 1 -->
  <path d="M140 180 Q 170 130 200 180" fill="#FFECB3" stroke="#FFCA28" stroke-width="2"/>
  
  <!-- Taco Filling 1 -->
  <path d="M150 175 Q 170 145 190 175" fill="#A5D6A7" stroke="#43A047" stroke-width="1"/>
  <path d="M155 170 Q 170 150 185 170" fill="#F44336" stroke="#E57373" stroke-width="1"/>
  
  <!-- Taco Shell 2 -->
  <path d="M200 180 Q 230 130 260 180" fill="#FFECB3" stroke="#FFCA28" stroke-width="2"/>
  
  <!-- Taco Filling 2 -->
  <path d="M210 175 Q 230 145 250 175" fill="#A5D6A7" stroke="#43A047" stroke-width="1"/>
  <path d="M215 170 Q 230 150 245 170" fill="#F44336" stroke="#E57373" stroke-width="1"/>
  
  <!-- Lime Wedges -->
  <path d="M290 180 L 310 170 L 310 190 Z" fill="#F0F4C3" stroke="#DCE775" stroke-width="1"/>
  <path d="M320 180 L 340 170 L 340 190 Z" fill="#F0F4C3" stroke="#DCE775" stroke-width="1"/>
  
  <!-- Cilantro Garnish -->
  <circle cx="160" cy="150" r="3" fill="#A5D6A7"/>
  <circle cx="170" cy="145" r="3" fill="#A5D6A7"/>
  <circle cx="180" cy="155" r="3" fill="#A5D6A7"/>
  
  <circle cx="220" cy="150" r="3" fill="#A5D6A7"/>
  <circle cx="230" cy="145" r="3" fill="#A5D6A7"/>
  <circle cx="240" cy="155" r="3" fill="#A5D6A7"/>
  
  <!-- Salsa -->
  <circle cx="120" cy="190" r="15" fill="#EF9A9A" stroke="#E57373" stroke-width="1"/>
  
  <!-- Guacamole -->
  <circle cx="280" cy="190" r="15" fill="#8BC34A" stroke="#8BC34A" stroke-width="1"/>
  
  <!-- Text -->
  <text x="200" y="250" font-family="Arial" font-size="16" text-anchor="middle" fill="#333">Vegan Tamales</text>
</svg>